<svg height="512" viewBox="0 0 58 58" width="512" xmlns="http://www.w3.org/2000/svg"><g id="Page-1" fill="none" fill-rule="evenodd"><g id="041---PNG" fill-rule="nonzero"><path id="Shape" d="m46 14v43c0 .5522847-.4477153 1-1 1h-44c-.55228475 0-1-.4477153-1-1v-56c0-.55228475.44771525-1 1-1h31z" fill="#ecf0f1"/><g fill="#d1d4d1"><path id="Shape" d="m7.91 36.91c-.26534858.0007185-.51994691-.1047939-.707-.293l-3.91-3.91c-.37897221-.3923789-.37355237-1.0160848.01218142-1.4018186.3857338-.3857338 1.00943969-.3911536 1.40181858-.0121814l3.91 3.91c.28590792.2859943.37142191.7160366.21667798 1.0896546-.15474393.3736179-.51928208.6172591-.92367798.6173454z"/><path id="Shape" d="m10.95 32.95c-.2653486.0007185-.5199469-.1047939-.707-.293l-6.95-6.95c-.37897221-.3923789-.37355237-1.0160848.01218142-1.4018186.3857338-.3857338 1.00943969-.3911536 1.40181858-.0121814l6.95 6.95c.2859079.2859943.3714219.7160366.216678 1.0896546-.1547439.3736179-.5192821.6172591-.923678.6173454z"/><path id="Shape" d="m13.99 28.99c-.2651948-.0000566-.5195073-.1054506-.707-.293l-9.99-9.99c-.37897221-.3923789-.37355237-1.0160848.01218142-1.4018186.3857338-.3857338 1.00943969-.3911536 1.40181858-.0121814l9.99 9.99c.2859079.2859943.3714219.7160366.216678 1.0896546-.1547439.3736179-.5192821.6172591-.923678.6173454z"/><path id="Shape" d="m17.03 25.03c-.2653486.0007185-.5199469-.1047939-.707-.293l-13.03-13.03c-.37897221-.3923789-.37355237-1.0160848.01218142-1.4018186.3857338-.38573377 1.00943969-.39115361 1.40181858-.0121814l13.03 13.03c.2859079.2859943.3714219.7160366.216678 1.0896546-.1547439.3736179-.5192821.6172591-.923678.6173454z"/><path id="Shape" d="m20.22 21.22c-.2651948-.0000566-.5195073-.1054506-.707-.293l-16.22-16.22c-.37897221-.39237889-.37355237-1.01608478.01218142-1.40181858.3857338-.38573379 1.00943969-.39115363 1.40181858-.01218142l16.22 16.22c.2859079.2859943.3714219.7160366.216678 1.0896546-.1547439.3736179-.5192821.6172591-.923678.6173454z"/><path id="Shape" d="m30.04 24.04c-.2651948-.0000566-.5195073-.1054506-.707-.293l-19.04-19.04c-.37897221-.39237889-.37355237-1.01608478.0121814-1.40181858.3857338-.38573379 1.0094397-.39115363 1.4018186-.01218142l19.04 19.04c.2859079.2859943.3714219.7160366.216678 1.0896546-.1547439.3736179-.5192821.6172591-.923678.6173454z"/><path id="Shape" d="m42 29c-.2655413.0002088-.5202623-.1052054-.708-.293l-24-24c-.3789722-.39237889-.3735524-1.01608478.0121814-1.40181858.3857338-.38573379 1.0094397-.39115363 1.4018186-.01218142l24 24c.2857798.2858655.3713576.7156657.21687 1.0891931s-.5186561.6173167-.92287.6178069z"/><path id="Shape" d="m42 22c-.2651948-.0000566-.5195073-.1054506-.707-.293l-17-17c-.3789722-.39237889-.3735524-1.01608478.0121814-1.40181858.3857338-.38573379 1.0094397-.39115363 1.4018186-.01218142l17 17c.2859079.2859943.3714219.7160366.216678 1.0896546-.1547439.3736179-.5192821.6172591-.923678.6173454z"/></g><path id="Shape" d="m33 14h13l-14-14v13c0 .5522847.4477153 1 1 1z" fill="#bdc3c7"/><path id="Shape" d="m28.86 29.72-17.86 28.28h-10c-.55228475 0-1-.4477153-1-1v-13.81l11.16-16.74 2.43 2.77c.1787951.2050126.4333938.3283393.7050984.3415471.2717046.0132079.5370647-.084843.7349016-.2715471l2.78-2.64c.3896281-.3598394.9903719-.3598394 1.38 0l2.78 2.64c.1978369.1867041.463197.284755.7349016.2715471.2717046-.0132078.5263033-.1365345.7050984-.3415471l2.77-3.15z" fill="#3f5c6c"/><path id="Shape" d="m46 37.6v19.4c0 .5522847-.4477153 1-1 1h-34l17.86-28.28.04-.06.93 1c.4048186.4295623 1.0774137.4605371 1.52.07l2.93-2.64c.41331-.3578334 1.02669-.3578334 1.44 0l2.93 2.64c.4425863.3905371 1.1151814.3595623 1.52-.07l.89-.96z" fill="#35495e"/><rect id="Rectangle-path" fill="#f0c419" height="18" rx="1" width="42" x="16" y="34"/><circle id="Oval" cx="11" cy="11" fill="#f0c419" r="3"/><path id="Shape" d="m11 6c-.5522847 0-1-.44771525-1-1v-1c0-.55228475.4477153-1 1-1s1 .44771525 1 1v1c0 .55228475-.4477153 1-1 1z" fill="#f3d55b"/><path id="Shape" d="m5 12h-1c-.55228475 0-1-.4477153-1-1s.44771525-1 1-1h1c.55228475 0 1 .4477153 1 1s-.44771525 1-1 1z" fill="#f3d55b"/><path id="Shape" d="m11 19c-.5522847 0-1-.4477153-1-1v-1c0-.5522847.4477153-1 1-1s1 .4477153 1 1v1c0 .5522847-.4477153 1-1 1z" fill="#f3d55b"/><path id="Shape" d="m18 12h-1c-.5522847 0-1-.4477153-1-1s.4477153-1 1-1h1c.5522847 0 1 .4477153 1 1s-.4477153 1-1 1z" fill="#f3d55b"/><path id="Shape" d="m26.18 26.07-2.77 3.15c-.1787951.2050126-.4333938.3283393-.7050984.3415471-.2717046.0132079-.5370647-.084843-.7349016-.2715471l-2.78-2.64c-.3896281-.3598394-.9903719-.3598394-1.38 0l-2.78 2.64c-.1978369.1867041-.463197.284755-.7349016.2715471-.2717046-.0132078-.5263033-.1365345-.7050984-.3415471l-2.43-2.77 5.71-8.57c.3616676-.539975.9645441-.8689524 1.614339-.8809118.649795-.0119594 1.2643687.2946109 1.645661.8209118z" fill="#bdc3c7"/><path id="Shape" d="m41.06 29.7-.89.96c-.4048186.4295623-1.0774137.4605371-1.52.07l-2.93-2.64c-.41331-.3578334-1.02669-.3578334-1.44 0l-2.93 2.64c-.4425863.3905371-1.1151814.3595623-1.52-.07l-.93-1 4.4-6.97c.3691068-.5803816 1.0099482-.9310557 1.6977552-.9290267.6878071.0020289 1.3265684.3564776 1.6922448.9390267z" fill="#bdc3c7"/><path id="Shape" d="m26.5 37h-3.5c-.5522847 0-1 .4477153-1 1v10c0 .5522847.4477153 1 1 1s1-.4477153 1-1v-4h2.5c1.9329966 0 3.5-1.5670034 3.5-3.5s-1.5670034-3.5-3.5-3.5zm0 5h-2.5v-3h2.5c.8284271 0 1.5.6715729 1.5 1.5s-.6715729 1.5-1.5 1.5z" fill="#3d324c"/><path id="Shape" d="m51 43h-4c-.5522847 0-1 .4477153-1 1s.4477153 1 1 1h1v1c0 .5522847-.4477153 1-1 1h-2c-.5522847 0-1-.4477153-1-1v-6c0-.5522847.4477153-1 1-1h2c.5522847 0 1 .4477153 1 1s.4477153 1 1 1 1-.4477153 1-1c0-1.6568542-1.3431458-3-3-3h-2c-1.6568542 0-3 1.3431458-3 3v6c0 1.6568542 1.3431458 3 3 3h2c1.6568542 0 3-1.3431458 3-3v-1h1c.5522847 0 1-.4477153 1-1s-.4477153-1-1-1z" fill="#3d324c"/><path id="Shape" d="m39 37c-.5522847 0-1 .4477153-1 1v6.39l-4.143-6.905c-.2315033-.385003-.6913367-.5683703-1.1242424-.448313s-.7326155.514068-.7327576.963313v10c0 .5522847.4477153 1 1 1s1-.4477153 1-1v-6.39l4.143 6.905c.1807575.3008613.5060146.4849332.857.485.0901947-.0002235.179967-.0123276.267-.036.4332476-.1200348.7331364-.5144315.733-.964v-10c0-.5522847-.4477153-1-1-1z" fill="#3d324c"/></g></g></svg>