<svg id="Capa_1" enable-background="new 0 0 512 512" height="512" viewBox="0 0 512 512" width="512" xmlns="http://www.w3.org/2000/svg"><g><path d="m474.5 7.5-45 497h30c24.85 0 45-20.15 45-45v-452z" fill="#cbc9c2"/><path d="m97.5 7.5v60l-45 437h377c24.85 0 45-20.15 45-45v-452z" fill="#f0ede5"/><path d="m444.5 234.5v120h-30l-30-60 30-60z" fill="#0f4c81"/><path d="m316 234.5h98.5v120h-98.5z" fill="#2d6aab"/><path d="m97.5 67.5v392c0 24.85-20.15 45-45 45s-45-20.15-45-45v-392h30l15 47 15-47z" fill="#cbc9c2"/><path d="m67.5 67.5v392c0 8.27-6.73 15-15 15s-15-6.73-15-15v-392z" fill="#adaca7"/><path d="m444.5 174.5v30h-30l-30-60z" fill="#ff5a47"/><path d="m414.5 129.5v75h-257v-30z" fill="#fe8047"/><path d="m444.5 97.5v77h-30l-30-38.5 30-38.5z" fill="#e8412e"/><path d="m157.5 97.5h257v77h-257z" fill="#ff5a47"/><path d="m504.5 0h-407c-4.143 0-7.5 3.358-7.5 7.5v52.5h-82.5c-4.143 0-7.5 3.358-7.5 7.5v392c0 28.949 23.552 52.5 52.5 52.5h407c28.948 0 52.5-23.551 52.5-52.5v-452c0-4.142-3.357-7.5-7.5-7.5zm-452 497c-20.678 0-37.5-16.822-37.5-37.5v-384.5h15v173.5c0 4.142 3.357 7.5 7.5 7.5s7.5-3.358 7.5-7.5v-173.5h15v384.5c0 4.136-3.364 7.5-7.5 7.5s-7.5-3.364-7.5-7.5v-181c0-4.142-3.357-7.5-7.5-7.5s-7.5 3.358-7.5 7.5v181c0 12.407 10.094 22.5 22.5 22.5s22.5-10.093 22.5-22.5v-384.5h15v384.5c0 20.678-16.822 37.5-37.5 37.5zm444.5-37.5c0 20.678-16.822 37.5-37.5 37.5h-370.293c9.74-9.536 15.793-22.824 15.793-37.5v-444.5h392z"/><path d="m157.5 302h128.5c4.143 0 7.5-3.358 7.5-7.5s-3.357-7.5-7.5-7.5h-128.5c-4.143 0-7.5 3.358-7.5 7.5s3.357 7.5 7.5 7.5z"/><path d="m157.5 332h128.5c4.143 0 7.5-3.358 7.5-7.5s-3.357-7.5-7.5-7.5h-128.5c-4.143 0-7.5 3.358-7.5 7.5s3.357 7.5 7.5 7.5z"/><path d="m157.5 272h128.5c4.143 0 7.5-3.358 7.5-7.5s-3.357-7.5-7.5-7.5h-128.5c-4.143 0-7.5 3.358-7.5 7.5s3.357 7.5 7.5 7.5z"/><path d="m157.5 242h128.5c4.143 0 7.5-3.358 7.5-7.5s-3.357-7.5-7.5-7.5h-128.5c-4.143 0-7.5 3.358-7.5 7.5s3.357 7.5 7.5 7.5z"/><path d="m444.5 227h-128.5c-4.143 0-7.5 3.358-7.5 7.5v120c0 4.142 3.357 7.5 7.5 7.5h128.5c4.143 0 7.5-3.358 7.5-7.5v-120c0-4.142-3.357-7.5-7.5-7.5zm-7.5 120h-113.5v-105h113.5z"/><path d="m157.5 212h287c4.143 0 7.5-3.358 7.5-7.5v-107c0-4.142-3.357-7.5-7.5-7.5h-287c-4.143 0-7.5 3.358-7.5 7.5v107c0 4.142 3.357 7.5 7.5 7.5zm7.5-15v-15h272v15zm272-92v62h-272v-62z"/><path d="m157.5 75h287c4.143 0 7.5-3.358 7.5-7.5s-3.357-7.5-7.5-7.5h-287c-4.143 0-7.5 3.358-7.5 7.5s3.357 7.5 7.5 7.5z"/><path d="m444.5 377h-128.5c-4.143 0-7.5 3.358-7.5 7.5s3.357 7.5 7.5 7.5h128.5c4.143 0 7.5-3.358 7.5-7.5s-3.357-7.5-7.5-7.5z"/><path d="m444.5 407h-128.5c-4.143 0-7.5 3.358-7.5 7.5s3.357 7.5 7.5 7.5h128.5c4.143 0 7.5-3.358 7.5-7.5s-3.357-7.5-7.5-7.5z"/><path d="m444.5 437h-128.5c-4.143 0-7.5 3.358-7.5 7.5s3.357 7.5 7.5 7.5h128.5c4.143 0 7.5-3.358 7.5-7.5s-3.357-7.5-7.5-7.5z"/><path d="m157.5 392h128.5c4.143 0 7.5-3.358 7.5-7.5s-3.357-7.5-7.5-7.5h-128.5c-4.143 0-7.5 3.358-7.5 7.5s3.357 7.5 7.5 7.5z"/><path d="m157.5 362h128.5c4.143 0 7.5-3.358 7.5-7.5s-3.357-7.5-7.5-7.5h-128.5c-4.143 0-7.5 3.358-7.5 7.5s3.357 7.5 7.5 7.5z"/><path d="m157.5 422h128.5c4.143 0 7.5-3.358 7.5-7.5s-3.357-7.5-7.5-7.5h-128.5c-4.143 0-7.5 3.358-7.5 7.5s3.357 7.5 7.5 7.5z"/><path d="m157.5 452h128.5c4.143 0 7.5-3.358 7.5-7.5s-3.357-7.5-7.5-7.5h-128.5c-4.143 0-7.5 3.358-7.5 7.5s3.357 7.5 7.5 7.5z"/></g></svg>